# xmcd CD database file
#
# Track frame offsets:
#	150
#	18845
#	41457
#	59846
#	83982
#	112911
#	134638
#	151438
#	178610
#	202783
#
# Disc length: 3143 seconds
#
# Revision: 1
# Processed by: cddbd v1.5.2PL0 Copyright (c) Steve Scherf et al.
# Submitted via: CDex 1.74
#
DISCID=800c450a
DTITLE=Various Artist - Joy In The Morning
DYEAR=1998
DGENRE=Blues
TTITLE0=This Is Another Day - Andrae Crouch
TTITLE1=Take My Hand, Precious Lord - Beau Williams
TTITLE2=God Is In Control - James Hall and Worship and Praise
TTITLE3=Goin' Up Yonder - Walter Hawkins
TTITLE4=Just Another Day - Calvin Bernard Rhone
TTITLE5=Designer's Original - Danniebelle Hall
TTITLE6=I Want To Thank You - Chicago Mass Choir
TTITLE7=God Is Able - Nu City Mass Choir
TTITLE8=So Good - Williams Brothers
TTITLE9=Until I Found The Lord - Walter Hawkins
EXTD=YEAR: 1998
EXTT0=
EXTT1=
EXTT2=
EXTT3=
EXTT4=
EXTT5=
EXTT6=
EXTT7=
EXTT8=
EXTT9=
PLAYORDER=
